<svg width="115" height="31" viewBox="0 0 115 31" fill="none" xmlns="http://www.w3.org/2000/svg">
    <path d="M57.57 6.75001V24.25C57.5691 24.316 57.5425 24.3791 57.4958 24.4258C57.4491 24.4725 57.386 24.4991 57.32 24.5H55.5C55.0823 24.5003 54.6711 24.3958 54.3042 24.1961C53.9373 23.9963 53.6264 23.7077 53.4 23.3567L45.14 10.59L45.4233 16.9667V24.25C45.4225 24.316 45.3958 24.3791 45.3492 24.4258C45.3025 24.4725 45.2394 24.4991 45.1733 24.5H42.7667C42.7006 24.4991 42.6375 24.4725 42.5908 24.4258C42.5441 24.3791 42.5175 24.316 42.5167 24.25V6.75001C42.5175 6.68397 42.5441 6.62088 42.5908 6.57419C42.6375 6.52749 42.7006 6.50087 42.7667 6.50001H44.5767C44.9939 6.50023 45.4045 6.60461 45.7712 6.80368C46.138 7.00275 46.4492 7.29022 46.6767 7.64001L54.9367 20.3867L54.68 14.0333V6.75001C54.68 6.6837 54.7063 6.62011 54.7532 6.57323C54.8001 6.52635 54.8637 6.50001 54.93 6.50001H57.3367C57.3998 6.505 57.4587 6.53343 57.5019 6.5797C57.5451 6.62597 57.5694 6.68672 57.57 6.75001Z" fill="white"/>
    <path d="M82.1667 24.5H79.62C79.5802 24.4996 79.5411 24.4898 79.5059 24.4712C79.4707 24.4527 79.4404 24.426 79.4176 24.3934C79.3948 24.3608 79.38 24.3232 79.3747 24.2838C79.3693 24.2443 79.3734 24.2042 79.3867 24.1667L86.1333 6.74002C86.1622 6.66705 86.2129 6.60481 86.2786 6.56184C86.3442 6.51886 86.4216 6.49727 86.5 6.50002H89.69C89.7656 6.50067 89.8393 6.52385 89.9016 6.5666C89.964 6.60936 90.0122 6.66973 90.04 6.74002L96.7667 24.1667C96.7799 24.2042 96.7841 24.2443 96.7787 24.2838C96.7733 24.3232 96.7586 24.3608 96.7358 24.3934C96.713 24.426 96.6827 24.4527 96.6475 24.4712C96.6123 24.4898 96.5731 24.4996 96.5333 24.5H93.9867C93.9357 24.5002 93.8859 24.4851 93.8436 24.4566C93.8014 24.428 93.7688 24.3874 93.75 24.34L88.3133 10.0067C88.2958 9.95842 88.2639 9.91672 88.2218 9.88725C88.1798 9.85778 88.1297 9.84198 88.0783 9.84198C88.027 9.84198 87.9769 9.85778 87.9349 9.88725C87.8928 9.91672 87.8609 9.95842 87.8433 10.0067L82.4067 24.34C82.3877 24.3879 82.3546 24.4289 82.3117 24.4575C82.2688 24.4861 82.2182 24.5009 82.1667 24.5Z" fill="white"/>
    <path d="M114.447 24.0967L109.387 17.6333C112.243 17.0933 113.913 15.1667 113.913 12.21C113.913 8.81334 111.703 6.50001 107.793 6.50001H100.737C100.638 6.50001 100.543 6.53934 100.473 6.60935C100.403 6.67937 100.363 6.77433 100.363 6.87334C100.363 7.18851 100.425 7.5006 100.546 7.79178C100.667 8.08296 100.843 8.34754 101.066 8.5704C101.289 8.79326 101.554 8.97004 101.845 9.09065C102.136 9.21126 102.448 9.27334 102.763 9.27334H107.5C109.863 9.27334 110.997 10.4833 110.997 12.23C110.997 13.9767 109.89 15.23 107.5 15.23H100.737C100.637 15.2309 100.542 15.271 100.472 15.3415C100.403 15.412 100.363 15.5073 100.363 15.6067V24.2733C100.363 24.3396 100.39 24.4032 100.437 24.4501C100.483 24.497 100.547 24.5233 100.613 24.5233H103.02C103.086 24.5225 103.149 24.4959 103.196 24.4492C103.243 24.4025 103.269 24.3394 103.27 24.2733V17.79H106.047L110.437 23.52C110.672 23.8266 110.975 24.0747 111.322 24.2447C111.669 24.4147 112.05 24.5021 112.437 24.5H114.263C114.309 24.4975 114.353 24.4825 114.391 24.4568C114.428 24.431 114.458 24.3954 114.477 24.3538C114.496 24.3123 114.503 24.2663 114.498 24.221C114.492 24.1757 114.475 24.1327 114.447 24.0967Z" fill="white"/>
    <path d="M74.5567 6.50001H63.39C63.3016 6.50001 63.2168 6.53513 63.1543 6.59764C63.0918 6.66015 63.0567 6.74494 63.0567 6.83334C63.0567 7.48135 63.3141 8.10283 63.7723 8.56104C64.2305 9.01925 64.852 9.27667 65.5 9.27667H74.5567C74.5896 9.27712 74.6223 9.27096 74.6529 9.25856C74.6834 9.24615 74.7111 9.22775 74.7344 9.20445C74.7577 9.18115 74.7761 9.15341 74.7885 9.12287C74.8009 9.09234 74.8071 9.05963 74.8067 9.02667V6.75001C74.8067 6.6837 74.7803 6.62011 74.7334 6.57323C74.6865 6.52635 74.623 6.50001 74.5567 6.50001ZM74.5567 21.7233H66.2233C66.1573 21.7225 66.0942 21.6959 66.0475 21.6492C66.0008 21.6025 65.9742 21.5394 65.9733 21.4733V16.96C65.9733 16.8937 65.9997 16.8301 66.0465 16.7832C66.0934 16.7363 66.157 16.71 66.2233 16.71H73.9267C73.993 16.71 74.0565 16.6837 74.1034 16.6368C74.1503 16.5899 74.1767 16.5263 74.1767 16.46V14.1667C74.1767 14.1004 74.1503 14.0368 74.1034 13.9899C74.0565 13.943 73.993 13.9167 73.9267 13.9167H63.43C63.3307 13.9176 63.2357 13.9576 63.1658 14.0282C63.0959 14.0987 63.0567 14.194 63.0567 14.2933V24.1133C63.0567 24.2124 63.096 24.3073 63.166 24.3773C63.236 24.4473 63.331 24.4867 63.43 24.4867H74.5567C74.623 24.4867 74.6865 24.4603 74.7334 24.4135C74.7803 24.3666 74.8067 24.303 74.8067 24.2367V21.96C74.8041 21.8958 74.7765 21.8351 74.7298 21.7909C74.6831 21.7466 74.621 21.7224 74.5567 21.7233Z" fill="white"/>
    <path d="M24.58 2.02333L18.3067 11.3333C18.205 11.4677 18.158 11.6356 18.1751 11.8032C18.1922 11.9708 18.2722 12.1258 18.3989 12.2368C18.5256 12.3479 18.6896 12.4069 18.858 12.4019C19.0265 12.3969 19.1867 12.3284 19.3067 12.21L25.48 6.87667C25.5156 6.84403 25.56 6.82255 25.6077 6.81491C25.6553 6.80726 25.7042 6.81378 25.7482 6.83366C25.7923 6.85354 25.8295 6.8859 25.8553 6.92672C25.881 6.96755 25.8943 7.01505 25.8933 7.06333V23.8267C25.8928 23.8776 25.8768 23.9271 25.8474 23.9686C25.818 24.0102 25.7766 24.0418 25.7288 24.0591C25.6809 24.0765 25.6289 24.0789 25.5797 24.066C25.5305 24.053 25.4864 24.0254 25.4533 23.9867L6.78667 1.65333C6.48867 1.29479 6.11585 1.00577 5.69435 0.806542C5.27285 0.607308 4.81287 0.502684 4.34667 0.500002H3.69667C2.84886 0.500002 2.03577 0.836792 1.43628 1.43628C0.836791 2.03577 0.5 2.84886 0.5 3.69667V27.3033C0.5 28.1511 0.836791 28.9642 1.43628 29.5637C2.03577 30.1632 2.84886 30.5 3.69667 30.5C4.24294 30.4999 4.78008 30.3599 5.25683 30.0932C5.73359 29.8265 6.13405 29.4421 6.42 28.9767L12.6933 19.6667C12.795 19.5323 12.842 19.3644 12.8249 19.1968C12.8078 19.0292 12.7278 18.8742 12.6011 18.7632C12.4744 18.6521 12.3104 18.5931 12.142 18.5981C11.9735 18.6031 11.8132 18.6716 11.6933 18.79L5.52 24.1233C5.48441 24.156 5.44002 24.1774 5.39233 24.1851C5.34465 24.1927 5.29577 24.1862 5.25176 24.1663C5.20775 24.1465 5.17054 24.1141 5.14475 24.0733C5.11895 24.0325 5.10571 23.9849 5.10667 23.9367V7.19C5.10717 7.13911 5.12319 7.08958 5.1526 7.04803C5.182 7.00649 5.22339 6.97491 5.27122 6.95752C5.31905 6.94013 5.37105 6.93775 5.42027 6.9507C5.46949 6.96365 5.51359 6.99132 5.54667 7.03L24.2133 29.3633C24.5136 29.7186 24.8878 30.0041 25.3098 30.1999C25.7318 30.3956 26.1915 30.4969 26.6567 30.4967H27.3233C27.7431 30.4967 28.1588 30.414 28.5466 30.2533C28.9345 30.0927 29.2869 29.8572 29.5837 29.5604C29.8806 29.2635 30.116 28.9111 30.2767 28.5233C30.4373 28.1355 30.52 27.7198 30.52 27.3V3.69667C30.52 3.27519 30.4367 2.85787 30.2748 2.46872C30.1129 2.07957 29.8756 1.72628 29.5767 1.42918C29.2777 1.13208 28.9229 0.897036 28.5328 0.737569C28.1426 0.578103 27.7248 0.497365 27.3033 0.500002C26.7571 0.500067 26.2199 0.640122 25.7432 0.906801C25.2664 1.17348 24.8659 1.55788 24.58 2.02333Z" fill="white"/>
</svg>
