<svg width="31" height="31" viewBox="0 0 31 31" fill="none" xmlns="http://www.w3.org/2000/svg">
<path d="M24.58 2.0234L18.3067 11.3334C18.205 11.4678 18.158 11.6357 18.1751 11.8033C18.1922 11.9709 18.2722 12.1258 18.3989 12.2369C18.5256 12.348 18.6896 12.407 18.858 12.402C19.0265 12.397 19.1867 12.3284 19.3067 12.2101L25.48 6.87673C25.5156 6.84409 25.56 6.82262 25.6077 6.81497C25.6553 6.80733 25.7042 6.81385 25.7482 6.83372C25.7923 6.8536 25.8295 6.88596 25.8553 6.92678C25.881 6.96761 25.8943 7.01511 25.8933 7.0634V23.8267C25.8928 23.8776 25.8768 23.9272 25.8474 23.9687C25.818 24.0102 25.7766 24.0418 25.7288 24.0592C25.6809 24.0766 25.6289 24.079 25.5797 24.066C25.5305 24.0531 25.4864 24.0254 25.4533 23.9867L6.78667 1.6534C6.48867 1.29485 6.11585 1.00584 5.69435 0.806603C5.27285 0.60737 4.81287 0.502745 4.34667 0.500063H3.69667C2.84886 0.500063 2.03577 0.836853 1.43628 1.43634C0.836791 2.03584 0.5 2.84892 0.5 3.69673V27.3034C0.5 28.1512 0.836791 28.9643 1.43628 29.5638C2.03577 30.1633 2.84886 30.5001 3.69667 30.5001C4.24294 30.5 4.78008 30.3599 5.25683 30.0933C5.73359 29.8266 6.13405 29.4422 6.42 28.9767L12.6933 19.6667C12.795 19.5324 12.842 19.3645 12.8249 19.1968C12.8078 19.0292 12.7278 18.8743 12.6011 18.7632C12.4744 18.6521 12.3104 18.5932 12.142 18.5981C11.9735 18.6031 11.8132 18.6717 11.6933 18.7901L5.52 24.1234C5.48441 24.156 5.44002 24.1775 5.39233 24.1852C5.34465 24.1928 5.29577 24.1863 5.25176 24.1664C5.20775 24.1465 5.17054 24.1142 5.14475 24.0733C5.11895 24.0325 5.10571 23.985 5.10667 23.9367V7.19006C5.10717 7.13917 5.12319 7.08964 5.1526 7.0481C5.182 7.00655 5.22339 6.97497 5.27122 6.95758C5.31905 6.94019 5.37105 6.93781 5.42027 6.95076C5.46949 6.96371 5.51359 6.99138 5.54667 7.03006L24.2133 29.3634C24.5136 29.7187 24.8878 30.0042 25.3098 30.2C25.7318 30.3957 26.1915 30.497 26.6567 30.4967H27.3233C27.7431 30.4967 28.1588 30.414 28.5466 30.2534C28.9345 30.0927 29.2869 29.8573 29.5837 29.5604C29.8806 29.2636 30.116 28.9112 30.2767 28.5234C30.4373 28.1355 30.52 27.7199 30.52 27.3001V3.69673C30.52 3.27525 30.4367 2.85793 30.2748 2.46878C30.1129 2.07963 29.8756 1.72634 29.5767 1.42924C29.2777 1.13214 28.9229 0.897097 28.5328 0.73763C28.1426 0.578164 27.7248 0.497426 27.3033 0.500063C26.7571 0.500128 26.2199 0.640183 25.7432 0.906862C25.2664 1.17354 24.8659 1.55795 24.58 2.0234Z" fill="black"/>
</svg>
